<?xml version="1.0" encoding="utf-8"?>
<!-- Generator: Adobe Illustrator 14.0.0, SVG Export Plug-In . SVG Version: 6.00 Build 43363)  -->
<!DOCTYPE svg PUBLIC "-//W3C//DTD SVG 1.1//EN" "http://www.w3.org/Graphics/SVG/1.1/DTD/svg11.dtd">
<svg version="1.1" id="Layer_1" xmlns="http://www.w3.org/2000/svg" xmlns:xlink="http://www.w3.org/1999/xlink" x="0px" y="0px"
	 width="771.167px" height="244.881px" viewBox="0 0 771.167 244.881" enable-background="new 0 0 771.167 244.881"
	 xml:space="preserve">
<path display="none" fill="none" stroke="#B1B1B0" stroke-width="2" d="M769.75,221.899c0,11.91-9.654,21.564-21.566,21.564H22.982
	c-11.91,0-21.565-9.654-21.565-21.564V22.982c0-11.909,9.655-21.564,21.565-21.564h725.201c11.912,0,21.566,9.655,21.566,21.564
	V221.899L769.75,221.899z"/>
<g>
	<path fill="#3696D5" d="M504.634,198.796c8.863-8.092,14.432-19.781,14.432-32.777c0-13-5.566-24.688-14.432-32.778
		c-7.791-7.112-18.127-11.446-29.467-11.446c-24.244,0-43.898,19.8-43.898,44.225c0,24.424,19.654,44.222,43.898,44.222
		C486.507,210.239,496.843,205.908,504.634,198.796"/>
	<path fill="#C30924" d="M534.103,121.793c-11.342,0-21.68,4.334-29.469,11.446c-1.59,1.449-3.066,3.017-4.434,4.682h8.863
		c1.211,1.482,2.33,3.048,3.346,4.684h-15.555c-0.934,1.504-1.779,3.066-2.529,4.685h20.611c0.707,1.515,1.33,3.077,1.863,4.681
		h-24.334c-0.506,1.526-0.936,3.09-1.275,4.684h26.885c0.646,3.019,0.988,6.15,0.988,9.365c0,4.91-0.795,9.635-2.264,14.047h-24.334
		c0.531,1.604,1.154,3.166,1.859,4.684h20.611c-0.75,1.617-1.596,3.178-2.527,4.682h-15.555c1.016,1.637,2.133,3.2,3.346,4.686
		h8.863c-1.363,1.665-2.844,3.232-4.432,4.683c7.789,7.111,18.127,11.442,29.471,11.442c24.24,0,43.895-19.797,43.895-44.221
		C577.998,141.593,558.345,121.793,534.103,121.793"/>
	<path fill="#C30924" d="M572.154,190.668c0-0.788,0.635-1.427,1.416-1.427c0.785,0,1.42,0.639,1.42,1.427s-0.635,1.429-1.42,1.429
		C572.789,192.097,572.154,191.457,572.154,190.668 M573.57,191.753c0.598,0,1.078-0.484,1.078-1.085s-0.48-1.086-1.078-1.086
		c-0.594,0-1.074,0.485-1.074,1.086S572.976,191.753,573.57,191.753 M573.38,191.297h-0.291v-1.258h0.527
		c0.107,0,0.221,0.002,0.318,0.063c0.1,0.068,0.156,0.189,0.156,0.314c0,0.143-0.082,0.273-0.215,0.323l0.229,0.556h-0.318
		l-0.193-0.498h-0.213V191.297v-0.711h0.16c0.061,0,0.125,0.003,0.178-0.026c0.047-0.031,0.072-0.09,0.072-0.146
		c0-0.047-0.027-0.103-0.07-0.127c-0.049-0.028-0.133-0.022-0.186-0.022h-0.154v0.321V191.297L573.38,191.297z"/>
	<path fill="#FFFFFF" d="M562.871,175.603c0-0.789,0.635-1.43,1.416-1.43c0.785,0,1.418,0.641,1.418,1.43s-0.633,1.429-1.418,1.429
		C563.505,177.031,562.871,176.392,562.871,175.603 M564.287,176.687c0.598,0,1.078-0.485,1.078-1.084
		c0-0.602-0.48-1.086-1.078-1.086c-0.594,0-1.076,0.484-1.076,1.086C563.21,176.201,563.693,176.687,564.287,176.687
		 M564.097,176.228h-0.291v-1.254h0.527c0.107,0,0.223,0.002,0.316,0.064c0.104,0.066,0.158,0.189,0.158,0.312
		c0,0.142-0.08,0.273-0.215,0.323l0.23,0.552H564.5l-0.189-0.494h-0.213V176.228v-0.711h0.16c0.062,0,0.123,0.008,0.176-0.023
		c0.051-0.029,0.074-0.09,0.074-0.143c0-0.051-0.031-0.104-0.072-0.129c-0.047-0.031-0.131-0.023-0.184-0.023h-0.154v0.318V176.228
		L564.097,176.228z"/>
	<polygon fill="#FFFFFF" points="469.681,177.031 464.218,177.031 467.464,159.794 459.99,177.031 455.009,177.031 454.097,159.894 
		450.841,177.031 445.88,177.031 450.121,154.608 458.644,154.608 459.095,168.489 465.105,154.608 473.988,154.608 	"/>
	<path fill="#FFFFFF" d="M530.74,176.806c-1.494,0.413-2.664,0.592-3.926,0.592c-2.797,0-4.32-1.412-4.32-4.004
		c0-0.514,0.055-1.059,0.16-1.637l0.332-1.783l0.256-1.443l2.533-13.922h5.432l-0.787,4.187h2.787l-0.748,4.433h-2.801l-1.439,7.607
		c-0.062,0.336-0.092,0.587-0.092,0.757c0,0.94,0.564,1.353,1.863,1.353c0.621,0,1.104-0.059,1.473-0.172L530.74,176.806z"/>
	<path fill="#FFFFFF" d="M546.697,158.944c-0.459-0.18-0.566-0.18-0.617-0.195c-0.291-0.062-0.445-0.102-0.473-0.107
		c-0.164-0.029-0.35-0.043-0.549-0.043c-1.795,0-3.086,0.805-4.762,2.961l0.484-2.765h-4.947l-3.33,18.235h5.467
		c1.955-11.15,2.793-13.105,5.416-13.105c0.197,0,0.426,0.018,0.689,0.047l0.641,0.133L546.697,158.944z"/>
	<path fill="#FFFFFF" d="M509.082,164.558c0,2.303,1.289,3.891,4.209,5.08c2.236,0.916,2.584,1.186,2.584,2.012
		c0,1.138-0.986,1.649-3.172,1.649c-1.648,0-3.184-0.225-4.953-0.721l-0.758,4.203l0.242,0.044l1.014,0.185
		c0.324,0.058,0.809,0.111,1.445,0.161c1.314,0.102,2.33,0.151,3.047,0.151c5.832,0,8.525-1.927,8.525-6.085
		c0-2.504-1.125-3.971-3.895-5.075c-2.316-0.923-2.584-1.128-2.584-1.979c0-0.982,0.918-1.488,2.705-1.488
		c1.084,0,2.564,0.104,3.971,0.273l0.787-4.221c-1.432-0.197-3.602-0.355-4.863-0.355
		C511.203,158.392,509.064,161.192,509.082,164.558"/>
	<path fill="#FFFFFF" d="M487.443,177.031h-4.541l0.107-1.892c-1.383,1.498-3.225,2.207-5.73,2.207
		c-2.961,0-4.994-2.033-4.994-4.982c0-4.441,3.531-7.029,9.598-7.029c0.623,0,1.412,0.05,2.229,0.141
		c0.17-0.6,0.217-0.857,0.217-1.184c0-1.209-0.955-1.66-3.506-1.66c-1.562,0-3.322,0.199-4.541,0.51l-0.756,0.193l-0.49,0.118
		l0.758-4.101c2.723-0.703,4.52-0.969,6.541-0.969c4.693,0,7.176,1.854,7.176,5.35c0,0.898-0.082,1.584-0.443,3.613l-1.143,6.469
		l-0.191,1.16l-0.139,0.928l-0.094,0.633L487.443,177.031z M483.457,168.906c-0.572-0.062-0.824-0.074-1.221-0.074
		c-3.096,0-4.666,0.935-4.666,2.772c0,1.136,0.768,1.86,1.961,1.86C481.759,173.465,483.363,171.604,483.457,168.906"/>
	<path fill="#FFFFFF" d="M505.367,176.636c-1.873,0.499-3.684,0.744-5.598,0.738c-6.109-0.003-9.291-2.805-9.291-8.168
		c0-6.26,4.049-10.868,9.547-10.868c4.498,0,7.369,2.581,7.369,6.629c0,1.343-0.195,2.651-0.67,4.502h-10.863
		c-0.043,0.281-0.053,0.405-0.053,0.573c0,2.113,1.621,3.191,4.793,3.191c1.951,0,3.717-0.358,5.674-1.153L505.367,176.636z
		 M502.458,165.786c0.027-0.38,0.045-0.689,0.045-0.93c0-1.48-0.959-2.35-2.586-2.35c-1.738,0-2.982,1.165-3.484,3.268
		L502.458,165.786z"/>
	<path fill="#FFFFFF" d="M563.679,168.763c-0.814,6.064-5.02,8.756-10.609,8.756c-6.184,0-8.682-3.777-8.682-8.403
		c0-6.464,4.23-10.845,10.762-10.845c5.668,0,8.678,3.604,8.678,8.229C563.826,167.626,563.824,167.703,563.679,168.763
		 M558.052,166.431c0-1.908-0.768-3.709-3.008-3.709c-2.787,0-4.516,3.319-4.516,6.252c0,2.471,1.184,4.131,3.139,4.098
		c1.184,0,3.709-1.627,4.207-4.463C557.994,167.942,558.052,167.217,558.052,166.431"/>
</g>
<g>
	<rect x="31.718" y="116.773" fill="#20356C" width="155.654" height="98.486"/>
	<path fill="#E8B134" d="M109.67,197.479c7.511,6.844,17.61,11.019,28.543,11.019c23.537,0,42.566-19.03,42.566-42.565
		c0-23.453-19.029-42.565-42.566-42.565c-10.934,0-21.033,4.173-28.543,11.016c-8.596,7.849-14.021,19.032-14.021,31.55
		C95.65,178.453,101.075,189.718,109.67,197.479"/>
	<path fill="#E8B134" d="M175.104,189.634c0-0.749,0.584-1.334,1.419-1.334c0.751,0,1.336,0.585,1.336,1.334
		c0,0.754-0.584,1.42-1.336,1.42C175.688,191.054,175.104,190.388,175.104,189.634 M176.522,190.718c0.5,0,1.001-0.498,1.001-1.084
		c0-0.584-0.501-1-1.001-1c-0.583,0-1.085,0.416-1.085,1C175.438,190.22,175.939,190.718,176.522,190.718 M176.271,190.303h-0.25
		v-1.253h0.501c0.083,0,0.25,0,0.334,0.084c0.083,0.084,0.166,0.168,0.166,0.25c0,0.168-0.083,0.334-0.25,0.334l0.25,0.585h-0.333
		l-0.167-0.501h-0.251V190.303z M176.271,189.552h0.167h0.168c0.083,0,0.083-0.085,0.083-0.168c0,0,0-0.082-0.083-0.082h-0.168
		h-0.167V189.552z"/>
	<path fill="#C30924" d="M123.442,161.424c-0.166-1.502-0.417-3.005-0.751-4.507h-26.04c0.334-1.501,0.75-3.004,1.251-4.507h23.536
		c-0.501-1.501-1.085-3.005-1.754-4.507H99.656c0.751-1.502,1.584-3.004,2.503-4.506h15.022c-0.917-1.588-2.002-3.088-3.254-4.506
		h-8.512c1.25-1.586,2.753-3.091,4.255-4.511c-7.511-6.843-17.527-11.016-28.543-11.016c-23.536,0-42.565,19.112-42.565,42.565
		c0,23.535,19.029,42.565,42.565,42.565c11.016,0,21.032-4.175,28.543-11.019c1.502-1.418,3.005-2.92,4.34-4.506h-8.595
		c-1.17-1.42-2.254-2.922-3.256-4.508h15.022c0.919-1.42,1.754-2.92,2.504-4.508H99.656c-0.668-1.416-1.252-2.921-1.753-4.508
		h23.536c0.5-1.5,0.917-3.004,1.251-4.506c0.334-1.5,0.585-3.004,0.751-4.506c0.167-1.504,0.25-3.006,0.25-4.508
		C123.692,164.431,123.608,162.927,123.442,161.424"/>
	<path fill="#FFFFFF" d="M175.104,175.782c0-0.754,0.584-1.336,1.419-1.336c0.751,0,1.336,0.582,1.336,1.336
		c0,0.75-0.584,1.418-1.336,1.418C175.688,177.2,175.104,176.532,175.104,175.782 M176.522,176.866c0.5,0,1.001-0.502,1.001-1.084
		c0-0.586-0.501-1.002-1.001-1.002c-0.583,0-1.085,0.417-1.085,1.002C175.438,176.364,175.939,176.866,176.522,176.866
		 M176.271,176.447h-0.25v-1.25h0.501c0.083,0,0.25,0,0.334,0.081c0.083,0.084,0.166,0.169,0.166,0.253
		c0,0.166-0.083,0.334-0.25,0.334l0.25,0.582h-0.333l-0.167-0.501h-0.251V176.447z M176.271,175.697h0.167h0.168
		c0.083,0,0.083-0.082,0.083-0.166c0,0,0-0.084-0.083-0.084h-0.168h-0.167V175.697z"/>
	<path fill="#20356C" d="M95.232,178.203c-1.419,0.415-2.42,0.583-3.505,0.583c-2.169,0-3.504-1.335-3.504-3.84
		c0-0.5,0.083-1.004,0.166-1.588l0.25-1.668l0.25-1.42l2.003-12.017h4.423l-0.501,2.669h2.754l-0.667,4.424h-2.755l-1.252,7.18
		c0,0.252-0.083,0.5-0.083,0.668c0,0.918,0.501,1.336,1.586,1.336c0.585,0,0.918-0.084,1.418-0.168L95.232,178.203z"/>
	<path fill="#20356C" d="M109.504,178.035c-1.586,0.499-3.172,0.751-4.757,0.751c-4.925,0-7.845-2.672-7.845-7.846
		c0-6.01,3.421-10.519,8.095-10.519c3.756,0,6.176,2.505,6.176,6.429c0,1.252-0.167,2.504-0.584,4.34h-9.18v0.5
		c0,2.088,1.335,3.088,4.006,3.088c1.669,0,3.17-0.332,4.841-1.084L109.504,178.035z M106.75,167.603v-0.836
		c0-1.42-0.835-2.252-2.171-2.252c-1.501,0-2.503,1.084-2.921,3.088H106.75z"/>
	<polygon fill="#20356C" points="59.928,178.453 55.338,178.453 58.009,161.842 52.083,178.453 48.912,178.453 48.578,161.926 
		45.738,178.453 41.316,178.453 44.906,156.834 51.497,156.834 51.748,170.19 56.172,156.834 63.517,156.834 	"/>
	<path fill="#20356C" d="M71.028,170.606c-0.5,0-0.583-0.084-0.917-0.084c-2.589,0-3.923,1.002-3.923,2.672
		c0,1.168,0.668,1.836,1.669,1.836C70.111,175.03,70.945,173.194,71.028,170.606 M74.7,178.453h-4.005l0.084-1.838
		c-1.001,1.42-2.337,2.171-4.842,2.171c-2.252,0-4.089-2.004-4.089-4.842c0-0.834,0.168-1.586,0.334-2.254
		c0.75-2.754,3.505-4.424,7.678-4.508c0.5,0,1.336,0,2.003,0.084c0.167-0.582,0.167-0.834,0.167-1.168
		c0-1.168-0.918-1.504-3.088-1.504c-1.336,0-2.754,0.252-3.838,0.504l-0.585,0.248h-0.334l0.668-3.923
		c2.17-0.666,3.672-0.918,5.341-0.918c4.006,0,6.093,1.752,6.093,5.175c0,0.836,0.082,1.502-0.251,3.424l-0.917,6.259l-0.168,1.084
		l-0.166,0.92v0.584L74.7,178.453z"/>
	<path fill="#20356C" d="M131.705,161.092c1.251,0,2.42,0.332,4.089,1.166l0.752-4.756c-0.418-0.168-0.501-0.168-1.086-0.417
		l-1.919-0.419c-0.584-0.166-1.252-0.249-2.086-0.249c-2.253,0-3.588,0-5.007,0.917c-0.752,0.419-1.67,1.085-2.755,2.254l-0.5-0.166
		l-4.757,3.338l0.25-1.836h-4.924l-2.754,17.528h4.59l1.669-9.436c0,0,0.668-1.334,1.002-1.75c0.835-1.086,1.585-1.086,2.504-1.086
		h0.333c-0.084,1.002-0.167,2.17-0.167,3.34c0,5.758,3.254,9.349,8.262,9.349c1.252,0,2.337-0.168,4.007-0.667l0.834-4.926
		c-1.502,0.75-2.754,1.084-3.923,1.084c-2.67,0-4.256-1.92-4.256-5.258C125.862,164.431,128.199,161.092,131.705,161.092"/>
	<path fill="#20356C" d="M170.681,156.834l-1.002,6.176c-1.085-1.669-2.42-2.42-4.173-2.42c-2.42,0-4.674,1.336-6.092,3.925
		l-2.922-1.755l0.25-1.837h-4.923l-2.837,17.529h4.672l1.503-9.436c0,0,1.168-1.334,1.502-1.75c0.668-0.834,1.419-1.086,2.003-1.086
		c-0.501,1.502-0.834,3.256-0.834,5.174c0,4.426,2.336,7.347,5.676,7.347c1.668,0,3.004-0.585,4.256-2.005l-0.25,1.756h4.423
		l3.506-21.618H170.681z M165.089,174.278c-1.586,0-2.338-1.084-2.338-3.42c0-3.424,1.419-5.928,3.589-5.928
		c1.585,0,2.421,1.252,2.421,3.506C168.762,171.858,167.258,174.278,165.089,174.278"/>
	<path fill="#20356C" d="M143.807,170.606c-0.502,0-0.586-0.084-0.918-0.084c-2.587,0-3.923,1.002-3.923,2.672
		c0,1.168,0.668,1.836,1.669,1.836C142.889,175.03,143.723,173.194,143.807,170.606 M147.479,178.453h-4.005l0.083-1.838
		c-1.002,1.42-2.336,2.171-4.84,2.171c-2.253,0-4.257-1.92-4.257-4.842c0.084-4.172,3.171-6.762,8.18-6.762
		c0.5,0,1.336,0,2.003,0.084c0.167-0.582,0.167-0.834,0.167-1.168c0-1.168-0.918-1.504-3.088-1.504
		c-1.335,0-2.837,0.252-3.838,0.504l-0.668,0.248h-0.251l0.667-3.923c2.171-0.666,3.673-0.918,5.342-0.918
		c4.006,0,6.093,1.752,6.093,5.175c0,0.836,0.083,1.502-0.25,3.424l-0.918,6.259l-0.167,1.084l-0.167,0.92l-0.083,0.584v0.502
		H147.479z"/>
	<path fill="#20356C" d="M84.299,164.679c0.918,0,2.169,0.084,3.504,0.252l0.668-4.089c-1.334-0.168-3.088-0.336-4.172-0.336
		c-5.091,0-6.844,2.755-6.844,6.011c0,2.086,1.002,3.674,3.423,4.756c1.919,0.918,2.253,1.086,2.253,1.838
		c0,1.084-1.001,1.752-2.838,1.752c-1.336,0-2.588-0.25-4.089-0.668l-0.501,4.009h0.083l0.834,0.164
		c0.251,0.086,0.668,0.167,1.169,0.167c1.167,0.168,2.086,0.168,2.67,0.168c5.092,0,7.261-1.92,7.261-5.844
		c0-2.418-1.168-3.84-3.505-4.84c-1.919-0.918-2.17-1-2.17-1.836S82.88,164.679,84.299,164.679"/>
	<path fill="#FFFFFF" d="M137.797,156.166l-0.751,4.675c-1.668-0.834-2.837-1.168-4.09-1.168c-3.505,0-5.925,3.338-5.925,8.098
		c0,3.252,1.67,5.258,4.34,5.258c1.169,0,2.42-0.336,3.923-1.086l-0.836,4.925c-1.668,0.417-2.753,0.585-4.088,0.585
		c-4.924,0-8.013-3.508-8.013-9.266c0-7.761,4.257-13.104,10.35-13.104c0.834,0,1.502,0.083,2.086,0.166l1.92,0.502
		C137.296,156,137.38,156,137.797,156.166"/>
	<path fill="#FFFFFF" d="M123.024,159.422c-0.167-0.084-0.334-0.084-0.501-0.084c-1.502,0-2.337,0.752-3.755,2.836l0.417-2.669
		h-4.256l-2.753,17.612h4.59c1.669-10.771,2.086-12.604,4.34-12.604h0.334c0.417-2.086,0.917-3.672,1.752-5.092L123.024,159.422
		L123.024,159.422z"/>
	<path fill="#FFFFFF" d="M96.4,176.866c-1.252,0.417-2.253,0.585-3.339,0.585c-2.336,0-3.671-1.337-3.671-3.841
		c0-0.5,0.083-1.002,0.168-1.586l0.25-1.752l0.25-1.336l2.004-12.02h4.591l-0.502,2.588h2.336l-0.667,4.34h-2.337l-1.251,7.262
		c0,0.336-0.083,0.584-0.083,0.752c0,0.92,0.5,1.336,1.586,1.336c0.584,0,0.918-0.084,1.252-0.168L96.4,176.866z"/>
	<path fill="#FFFFFF" d="M78.624,165.099c0,2.168,1.084,3.756,3.505,4.84c1.919,0.918,2.17,1.168,2.17,2.004
		c0,1.084-0.835,1.586-2.671,1.586c-1.335,0-2.588-0.252-4.089-0.75l-0.669,4.088h0.251l0.835,0.165
		c0.251,0.087,0.668,0.169,1.168,0.169c1.086,0.083,2.003,0.167,2.587,0.167c4.841,0,7.095-1.836,7.095-5.843
		c0-2.42-0.917-3.842-3.254-4.926c-1.92-0.834-2.171-1.084-2.171-1.836c0-1,0.751-1.5,2.254-1.5c0.918,0,2.168,0.164,3.338,0.332
		l0.668-4.09c-1.169-0.167-3.005-0.334-4.089-0.334C80.376,159.171,78.624,161.842,78.624,165.099"/>
	<path fill="#FFFFFF" d="M173.101,177.118h-4.423l0.25-1.756c-1.252,1.336-2.586,1.921-4.256,1.921
		c-3.338,0-5.592-2.837-5.592-7.261c0-5.845,3.422-10.769,7.512-10.769c1.835,0,3.171,0.752,4.423,2.42l1.001-6.174h4.59
		L173.101,177.118z M166.258,172.942c2.169,0,3.671-2.42,3.671-5.924c0-2.172-0.834-3.424-2.42-3.424
		c-2.087,0-3.589,2.42-3.589,5.928C163.919,171.776,164.671,172.942,166.258,172.942"/>
	<path fill="#FFFFFF" d="M110.506,176.698c-1.587,0.502-3.088,0.753-4.757,0.753c-5.175,0-7.846-2.757-7.846-7.847
		c0-6.092,3.422-10.518,8.096-10.518c3.755,0,6.177,2.505,6.177,6.428c0,1.252-0.167,2.504-0.501,4.34h-9.181
		c-0.083,0.252-0.083,0.336-0.083,0.5c0,2.004,1.336,3.09,4.089,3.09c1.587,0,3.088-0.334,4.758-1.086L110.506,176.698z
		 M107.918,166.267v-0.92c0-1.419-0.751-2.253-2.169-2.253c-1.42,0-2.505,1.169-2.922,3.173H107.918z"/>
	<polygon fill="#FFFFFF" points="61.097,177.118 56.506,177.118 59.176,160.506 53.251,177.118 50.08,177.118 49.745,160.59 
		46.909,177.118 42.651,177.118 46.241,155.499 52.833,155.499 53.084,168.854 57.507,155.499 64.686,155.499 	"/>
	<path fill="#FFFFFF" d="M72.531,169.271c-0.5-0.084-0.75-0.084-1.084-0.084c-2.588,0-3.923,0.92-3.923,2.672
		c0,1.084,0.667,1.836,1.669,1.836C71.112,173.694,72.448,171.858,72.531,169.271 M75.87,177.118h-3.84l0.084-1.84
		c-1.169,1.42-2.671,2.089-4.842,2.089c-2.503,0-4.172-1.921-4.172-4.757c0-4.258,2.92-6.762,8.096-6.762c0.5,0,1.168,0,1.835,0.082
		c0.167-0.5,0.167-0.75,0.167-1.084c0-1.168-0.75-1.586-2.92-1.586c-1.336,0-2.837,0.166-3.839,0.501l-0.668,0.166l-0.418,0.082
		l0.668-3.922c2.338-0.666,3.839-0.918,5.509-0.918c4.006,0,6.093,1.753,6.093,5.092c0,0.919-0.084,1.587-0.418,3.507l-0.918,6.258
		l-0.167,1.088l-0.083,0.916l-0.084,0.585L75.87,177.118z"/>
	<path fill="#FFFFFF" d="M145.309,169.271c-0.501-0.084-0.752-0.084-1.084-0.084c-2.587,0-3.923,0.92-3.923,2.672
		c0,1.084,0.667,1.836,1.669,1.836C143.807,173.694,145.225,171.858,145.309,169.271 M148.647,177.118h-3.84l0.083-1.84
		c-1.168,1.42-2.753,2.089-4.839,2.089c-2.504,0-4.258-1.921-4.258-4.757c0-4.258,3.005-6.762,8.18-6.762c0.5,0,1.168,0,1.835,0.082
		c0.167-0.5,0.167-0.75,0.167-1.084c0-1.168-0.751-1.586-2.92-1.586c-1.336,0-2.838,0.166-3.839,0.501l-0.668,0.166l-0.418,0.082
		l0.668-3.922c2.337-0.666,3.839-0.918,5.509-0.918c4.006,0,6.092,1.753,6.092,5.092c0,0.919-0.083,1.587-0.417,3.507l-0.918,6.258
		l-0.167,1.088l-0.167,0.916l-0.083,0.585V177.118L148.647,177.118z"/>
	<path fill="#FFFFFF" d="M160.999,159.422c-0.083-0.084-0.25-0.084-0.417-0.084c-1.502,0-2.421,0.752-3.839,2.836l0.417-2.669
		h-4.172l-2.838,17.612h4.674c1.585-10.771,2.086-12.604,4.256-12.604h0.334c0.417-2.086,1.001-3.672,1.752-5.092L160.999,159.422
		L160.999,159.422z"/>
</g>
<g>
	<polygon fill="#1F5DA5" points="298.506,191.521 285.238,191.521 293.531,140.546 306.801,140.546 	"/>
	<path fill="#1F5DA5" d="M274.074,140.546l-12.652,35.059l-1.497-7.549l0.001,0.004l-4.466-22.922c0,0-0.539-4.592-6.296-4.592
		h-20.912l-0.245,0.865c0,0,6.397,1.328,13.881,5.826l11.53,44.281h13.825l21.113-50.974L274.074,140.546L274.074,140.546z"/>
	<path fill="#1F5DA5" d="M378.452,191.521h12.182l-10.622-50.975h-10.668c-4.927,0-6.127,3.801-6.127,3.801l-19.79,47.174h13.831
		l2.767-7.571h16.869L378.452,191.521z M363.849,173.489l6.973-19.075l3.924,19.075H363.849z"/>
	<path fill="#1F5DA5" d="M344.464,152.806l1.893-10.947c0,0-5.842-2.223-11.935-2.223c-6.585,0-22.224,2.881-22.224,16.875
		c0,13.17,18.354,13.332,18.354,20.245c0,6.916-16.462,5.679-21.896,1.318l-1.974,11.44c0,0,5.925,2.881,14.979,2.881
		c9.054,0,22.716-4.69,22.716-17.451c0-13.25-18.518-14.484-18.518-20.246C325.861,148.935,338.786,149.676,344.464,152.806"/>
	<path fill="#E4A636" d="M259.926,168.06l-4.466-22.922c0,0-0.539-4.592-6.296-4.592h-20.912l-0.245,0.865
		c0,0,10.052,2.082,19.697,9.889C256.919,158.76,259.926,168.06,259.926,168.06"/>
</g>
<g>
	<rect x="631.539" y="115.258" fill="#FFFFFF" width="103.549" height="101.302"/>
	<g>
		<g>
			<defs>
				<path id="SVGID_1_" d="M631.539,115.258v44.447l3.539-8.409h7.691c0,0,0.885,2.107,0.922,2.195v-2.195h9.004
					c0,0,1.348,2.998,1.992,4.428c0.635-1.427,1.977-4.428,1.977-4.428h6.025h0.598h2.383h8.723h0.709h2.383h7
					c0.492-0.037,1.779-0.062,3.115,0.492v-0.492h5.619h2.381v1.055c1.174-0.729,2.512-1.103,3.857-1.16
					c0,0,4.293,0.115,4.459,0.119l0.004-0.014h7.668c0,0,0.834,1.987,0.855,2.044v-2.044h8.271c0,0,1.184,1.953,1.312,2.173v-2.173
					h8v17.434h-8.162c0,0-1.219-2.021-1.375-2.279v2.279h-10.256c0,0-0.879-2.056-1.141-2.656h-2.719
					c-0.246,0.589-1.111,2.656-1.111,2.656h-6.793l-0.168-0.022c-0.756-0.11-1.734-0.454-2.705-1.065v1.133h-5.619v-0.043h-7.098
					v-2.383c0,0,0.012-1.691,0.012-2.014h-0.52v4.396h-4.891h-3.092h-8.723h-0.6h-7.422v-0.27c-0.037,0.083-0.125,0.27-0.125,0.27
					h-5.68c0,0-0.096-0.209-0.152-0.328v0.328h-10.312c0,0-0.865-2.068-1.111-2.657h-2.719c-0.256,0.602-1.137,2.657-1.137,2.657
					h-4.873v47.83h103.549v-27.402c-1.152,0.705-2.49,1.027-3.75,1.027c0,0-0.201-0.011-0.389-0.02l-8.107,0.003v-0.556
					c-0.922,0.378-1.9,0.572-2.846,0.572c0,0-0.195-0.012-0.387-0.021h-4.803v0.022h-11.617v0.021h-7.895v-2.381
					c0,0,0.012-1.694,0.012-2.014h-0.52v4.395H686.8v-4.764c-1.311,0.531-2.812,0.671-4.24,0.671h-0.77v4.071h-9.418
					c0,0-1.535-1.689-2.359-2.6c-0.832,0.913-2.377,2.6-2.377,2.6h-15.393v-17.457h15.135c0,0,1.682,1.84,2.648,2.896
					c0.975-1.051,2.656-2.871,2.656-2.871h1.041l2.467-0.022h7.723c0.447-0.028,1.627-0.036,2.887,0.438v-0.396h10.1
					c0.494-0.036,1.779-0.061,3.111,0.49v-0.49h12.412h2.381v0.5c1.4-0.563,2.686-0.529,2.883-0.519l8.42-0.003v0.538
					c1.41-0.585,2.725-0.547,2.92-0.535l6.059-0.003v-57.499H631.539V115.258z"/>
			</defs>
			<clipPath id="SVGID_2_">
				<use xlink:href="#SVGID_1_"  overflow="visible"/>
			</clipPath>
			
				<radialGradient id="SVGID_3_" cx="-29.7344" cy="2.3594" r="0.8865" gradientTransform="matrix(140.8697 0 0 140.8697 4834.3071 -202.8682)" gradientUnits="userSpaceOnUse">
				<stop  offset="0" style="stop-color:#58B1E5"/>
				<stop  offset="0.427" style="stop-color:#4897CA"/>
				<stop  offset="0.5077" style="stop-color:#438DBC"/>
				<stop  offset="0.8348" style="stop-color:#326B8E"/>
				<stop  offset="1" style="stop-color:#2C5F7E"/>
			</radialGradient>
			<rect x="631.539" y="115.258" clip-path="url(#SVGID_2_)" fill="url(#SVGID_3_)" width="103.549" height="101.302"/>
		</g>
	</g>
	<g>
		<g>
			<defs>
				<path id="SVGID_4_" d="M680.031,156.572h3.326c0.965,0,1.758,0.536,1.758,1.202c0,0.662-0.793,1.199-1.758,1.199h-3.326V156.572
					z M684.623,153.678h-7.805v12.669h3.213v-4.396h3.133c2.014,0,2.145,1.933,2.145,1.933v2.463h3.15v-3.129
					c0-2.143-1.564-2.874-1.564-2.874s1.803-0.771,1.803-2.956c0-3.404-2.672-3.728-3.689-3.728
					C684.769,153.661,684.623,153.678,684.623,153.678"/>
			</defs>
			<clipPath id="SVGID_5_">
				<use xlink:href="#SVGID_4_"  overflow="visible"/>
			</clipPath>
			
				<radialGradient id="SVGID_6_" cx="-29.7339" cy="2.3569" r="0.888" gradientTransform="matrix(140.8742 0 0 140.8742 4834.3721 -202.7705)" gradientUnits="userSpaceOnUse">
				<stop  offset="0" style="stop-color:#58B1E5"/>
				<stop  offset="0.427" style="stop-color:#4897CA"/>
				<stop  offset="0.5077" style="stop-color:#438DBC"/>
				<stop  offset="0.8348" style="stop-color:#326B8E"/>
				<stop  offset="1" style="stop-color:#2C5F7E"/>
			</radialGradient>
			<rect x="676.818" y="153.661" clip-path="url(#SVGID_5_)" fill="url(#SVGID_6_)" width="11.877" height="12.688"/>
		</g>
	</g>
	<g>
		<g>
			<defs>
				<path id="SVGID_7_" d="M707.796,156.681l1.543,3.771h-3.127L707.796,156.681z M694.355,160.367c0,5.36,4.328,5.979,4.328,5.979
					h1.545h0.535h2.959l1.117-2.656h5.873l1.139,2.656h3.02h0.514h2.77v-8.468l5.102,8.468h4.438v-12.669h-3.236v8.341l-5.039-8.341
					h-4.545v11.49l-4.824-11.49h-4.5l-3.986,9.453c-0.123,0.04-3.828,1.37-3.838-2.913c-0.004-0.27,0.01-0.562,0.041-0.88
					c0.258-2.767,2.381-2.767,2.381-2.767l3.26-0.043v-2.852l-3.969-0.107C699.267,153.614,694.355,153.333,694.355,160.367"/>
			</defs>
			<clipPath id="SVGID_8_">
				<use xlink:href="#SVGID_7_"  overflow="visible"/>
			</clipPath>
			
				<radialGradient id="SVGID_9_" cx="-29.7339" cy="2.3589" r="0.8863" gradientTransform="matrix(140.8687 0 0 140.8687 4834.2925 -202.8174)" gradientUnits="userSpaceOnUse">
				<stop  offset="0" style="stop-color:#58B1E5"/>
				<stop  offset="0.427" style="stop-color:#4897CA"/>
				<stop  offset="0.5077" style="stop-color:#438DBC"/>
				<stop  offset="0.8348" style="stop-color:#326B8E"/>
				<stop  offset="1" style="stop-color:#2C5F7E"/>
			</radialGradient>
			<rect x="694.355" y="153.333" clip-path="url(#SVGID_8_)" fill="url(#SVGID_9_)" width="33.336" height="13.016"/>
		</g>
	</g>
	<g>
		<g>
			<defs>
				<path id="SVGID_10_" d="M638.957,156.681l1.566,3.771h-3.133L638.957,156.681z M658.251,153.678l-3.516,7.868l-3.537-7.868
					h-5.082v11.64l-4.887-11.64h-4.525l-5.338,12.669h3.516l1.137-2.656h5.879l1.109,2.656h3.109h0.432h2.807v-8.703l4.053,8.703
					h2.637l4.031-8.746v8.746h3.26v-12.669H658.251z"/>
			</defs>
			<clipPath id="SVGID_11_">
				<use xlink:href="#SVGID_10_"  overflow="visible"/>
			</clipPath>
			
				<radialGradient id="SVGID_12_" cx="-29.7344" cy="2.3594" r="0.8853" gradientTransform="matrix(140.8732 0 0 140.8732 4834.3574 -202.8447)" gradientUnits="userSpaceOnUse">
				<stop  offset="0" style="stop-color:#58B1E5"/>
				<stop  offset="0.427" style="stop-color:#4897CA"/>
				<stop  offset="0.5077" style="stop-color:#438DBC"/>
				<stop  offset="0.8348" style="stop-color:#326B8E"/>
				<stop  offset="1" style="stop-color:#2C5F7E"/>
			</radialGradient>
			<rect x="631.367" y="153.678" clip-path="url(#SVGID_11_)" fill="url(#SVGID_12_)" width="31.967" height="12.669"/>
		</g>
	</g>
	<g>
		<g>
			<defs>
				<polygon id="SVGID_13_" points="665.111,153.678 665.111,166.347 675.148,166.347 675.148,163.606 668.349,163.606 
					668.349,161.46 674.974,161.46 674.974,158.587 668.349,158.587 668.349,156.636 675.148,156.636 675.148,153.678 				"/>
			</defs>
			<clipPath id="SVGID_14_">
				<use xlink:href="#SVGID_13_"  overflow="visible"/>
			</clipPath>
			
				<radialGradient id="SVGID_15_" cx="-29.7344" cy="2.3594" r="0.8878" gradientTransform="matrix(140.8847 0 0 140.8847 4834.7734 -202.8291)" gradientUnits="userSpaceOnUse">
				<stop  offset="0" style="stop-color:#58B1E5"/>
				<stop  offset="0.427" style="stop-color:#4897CA"/>
				<stop  offset="0.5077" style="stop-color:#438DBC"/>
				<stop  offset="0.8348" style="stop-color:#326B8E"/>
				<stop  offset="1" style="stop-color:#2C5F7E"/>
			</radialGradient>
			<rect x="665.111" y="153.678" clip-path="url(#SVGID_14_)" fill="url(#SVGID_15_)" width="10.037" height="12.669"/>
		</g>
	</g>
	<g>
		<g>
			<defs>
				<rect id="SVGID_16_" x="690.025" y="153.678" width="3.236" height="12.714"/>
			</defs>
			<clipPath id="SVGID_17_">
				<use xlink:href="#SVGID_16_"  overflow="visible"/>
			</clipPath>
			
				<radialGradient id="SVGID_18_" cx="-29.7344" cy="2.3599" r="0.8861" gradientTransform="matrix(140.8687 0 0 140.8687 4834.2925 -202.8174)" gradientUnits="userSpaceOnUse">
				<stop  offset="0" style="stop-color:#58B1E5"/>
				<stop  offset="0.427" style="stop-color:#4897CA"/>
				<stop  offset="0.5077" style="stop-color:#438DBC"/>
				<stop  offset="0.8348" style="stop-color:#326B8E"/>
				<stop  offset="1" style="stop-color:#2C5F7E"/>
			</radialGradient>
			<rect x="690.025" y="153.678" clip-path="url(#SVGID_17_)" fill="url(#SVGID_18_)" width="3.236" height="12.714"/>
		</g>
	</g>
	<g>
		<g>
			<defs>
				<path id="SVGID_19_" d="M692.447,178.054h3.326c0.961,0,1.756,0.535,1.756,1.2s-0.795,1.2-1.756,1.2h-3.326V178.054z
					 M697.035,175.16h-7.807v12.671h3.219v-4.395h3.131c2.012,0,2.145,1.928,2.145,1.928v2.467h3.129v-3.135
					c0-2.141-1.543-2.868-1.543-2.868s1.803-0.771,1.803-2.96c0-3.404-2.674-3.725-3.689-3.725
					C697.181,175.144,697.035,175.16,697.035,175.16"/>
			</defs>
			<clipPath id="SVGID_20_">
				<use xlink:href="#SVGID_19_"  overflow="visible"/>
			</clipPath>
			
				<radialGradient id="SVGID_21_" cx="-29.7344" cy="2.3623" r="0.8836" gradientTransform="matrix(140.8754 0 0 140.8754 4834.5142 -202.7744)" gradientUnits="userSpaceOnUse">
				<stop  offset="0" style="stop-color:#58B1E5"/>
				<stop  offset="0.427" style="stop-color:#4897CA"/>
				<stop  offset="0.5077" style="stop-color:#438DBC"/>
				<stop  offset="0.8348" style="stop-color:#326B8E"/>
				<stop  offset="1" style="stop-color:#2C5F7E"/>
			</radialGradient>
			<rect x="689.228" y="175.144" clip-path="url(#SVGID_20_)" fill="url(#SVGID_21_)" width="11.883" height="12.688"/>
		</g>
	</g>
	<g>
		<g>
			<defs>
				<path id="SVGID_22_" d="M657.908,178.097h6.775l3.172,3.475l-3.172,3.492h-6.775v-2.144h6.604v-2.874h-6.604V178.097z
					 M679.455,178.032h3.322c0.965,0,1.76,0.537,1.76,1.199c0,0.664-0.795,1.199-1.76,1.199h-3.322V178.032z M672.253,181.572
					l3.986-4.396v8.812L672.253,181.572z M684.042,175.119h-7.803v0.021h-2.465l-3.709,4.008l-3.689-4.027h-1.693h-10.014v12.688
					h10.014h1.949l3.436-3.75l3.404,3.75h2.811h3.174v-4.074h3.15c4.156,0,5.512-1.155,5.512-4.885c0-3.438-2.756-3.746-3.736-3.746
					C684.171,175.103,684.042,175.119,684.042,175.119"/>
			</defs>
			<clipPath id="SVGID_23_">
				<use xlink:href="#SVGID_22_"  overflow="visible"/>
			</clipPath>
			
				<radialGradient id="SVGID_24_" cx="-29.7334" cy="2.3594" r="0.8852" gradientTransform="matrix(140.8732 0 0 140.8732 4834.3574 -202.8447)" gradientUnits="userSpaceOnUse">
				<stop  offset="0" style="stop-color:#58B1E5"/>
				<stop  offset="0.427" style="stop-color:#4897CA"/>
				<stop  offset="0.5077" style="stop-color:#438DBC"/>
				<stop  offset="0.8348" style="stop-color:#326B8E"/>
				<stop  offset="1" style="stop-color:#2C5F7E"/>
			</radialGradient>
			<rect x="654.669" y="175.103" clip-path="url(#SVGID_23_)" fill="url(#SVGID_24_)" width="33.447" height="12.705"/>
		</g>
	</g>
	<g>
		<g>
			<defs>
				<path id="SVGID_25_" d="M713.585,179.041c0,4.16,4.439,3.772,4.439,3.772s2.721-0.088,2.721,1.054
					c0,1.217-1.801,1.003-1.801,1.003h-5.018v2.917h5.727c0,0,0.146,0.019,0.387,0.019c1.121,0,4.285-0.363,4.285-4.455
					c0-3.814-4.91-3.453-4.91-3.453s-2.336,0.149-2.336-0.897c0-1.247,1.717-0.901,1.717-0.901h4.975v-2.957h-6.178
					c0,0-0.041-0.006-0.115-0.006C716.818,175.134,713.585,175.325,713.585,179.041"/>
			</defs>
			<clipPath id="SVGID_26_">
				<use xlink:href="#SVGID_25_"  overflow="visible"/>
			</clipPath>
			
				<radialGradient id="SVGID_27_" cx="-29.7305" cy="2.3594" r="0.8824" gradientTransform="matrix(140.8736 0 0 140.8736 4834.3633 -202.7627)" gradientUnits="userSpaceOnUse">
				<stop  offset="0" style="stop-color:#58B1E5"/>
				<stop  offset="0.427" style="stop-color:#4897CA"/>
				<stop  offset="0.5077" style="stop-color:#438DBC"/>
				<stop  offset="0.8348" style="stop-color:#326B8E"/>
				<stop  offset="1" style="stop-color:#2C5F7E"/>
			</radialGradient>
			<rect x="713.585" y="175.134" clip-path="url(#SVGID_26_)" fill="url(#SVGID_27_)" width="10.74" height="12.67"/>
		</g>
	</g>
	<g>
		<g>
			<defs>
				<polygon id="SVGID_28_" points="702.439,175.16 702.439,187.808 712.468,187.808 712.468,185.063 705.673,185.063 
					705.673,182.92 712.298,182.92 712.298,180.046 705.673,180.046 705.673,178.097 712.468,178.097 712.468,175.16 				"/>
			</defs>
			<clipPath id="SVGID_29_">
				<use xlink:href="#SVGID_28_"  overflow="visible"/>
			</clipPath>
			
				<radialGradient id="SVGID_30_" cx="-29.7329" cy="2.3584" r="0.8846" gradientTransform="matrix(140.875 0 0 140.875 4834.5083 -202.8564)" gradientUnits="userSpaceOnUse">
				<stop  offset="0" style="stop-color:#58B1E5"/>
				<stop  offset="0.427" style="stop-color:#4897CA"/>
				<stop  offset="0.5077" style="stop-color:#438DBC"/>
				<stop  offset="0.8348" style="stop-color:#326B8E"/>
				<stop  offset="1" style="stop-color:#2C5F7E"/>
			</radialGradient>
			<rect x="702.439" y="175.16" clip-path="url(#SVGID_29_)" fill="url(#SVGID_30_)" width="10.029" height="12.647"/>
		</g>
	</g>
	<g>
		<g>
			<defs>
				<path id="SVGID_31_" d="M724.925,179.041c0,4.16,4.439,3.772,4.439,3.772s2.721-0.088,2.721,1.054
					c0,1.217-1.82,1.003-1.82,1.003h-4.994v2.917h5.725c0,0,0.145,0.019,0.387,0.019c1.123,0,4.287-0.363,4.287-4.455
					c0-3.814-4.91-3.453-4.91-3.453s-2.338,0.149-2.338-0.897c0-1.247,1.715-0.901,1.715-0.901h4.955v-2.957h-6.154
					c0,0-0.043-0.006-0.119-0.006C728.158,175.134,724.925,175.325,724.925,179.041"/>
			</defs>
			<clipPath id="SVGID_32_">
				<use xlink:href="#SVGID_31_"  overflow="visible"/>
			</clipPath>
			
				<radialGradient id="SVGID_33_" cx="-29.7339" cy="2.3594" r="0.886" gradientTransform="matrix(140.8616 0 0 140.8616 4834.0654 -202.8213)" gradientUnits="userSpaceOnUse">
				<stop  offset="0" style="stop-color:#58B1E5"/>
				<stop  offset="0.427" style="stop-color:#4897CA"/>
				<stop  offset="0.5077" style="stop-color:#438DBC"/>
				<stop  offset="0.8348" style="stop-color:#326B8E"/>
				<stop  offset="1" style="stop-color:#2C5F7E"/>
			</radialGradient>
			<rect x="724.925" y="175.134" clip-path="url(#SVGID_32_)" fill="url(#SVGID_33_)" width="10.742" height="12.67"/>
		</g>
	</g>
	<g>
		<path fill="none" d="M623.865,210.428h-1.352v1.242h1.242c0.408,0,0.771-0.108,0.771-0.644
			C624.527,210.468,624.142,210.428,623.865,210.428z"/>
		<path fill="none" d="M623.417,207.96c-2.363,0-4.076,1.801-4.076,4.055c0,2.228,1.732,4.051,4.076,4.051
			c2.311,0,4.047-1.823,4.047-4.051C627.464,209.761,625.75,207.96,623.417,207.96z M625.47,214.2h-0.879
			c-0.104-0.362-0.127-1.028-0.127-1.18c0-0.323-0.045-0.666-0.645-0.666h-1.307v1.846h-0.771v-4.458h2.078
			c0.707,0,1.502,0.231,1.502,1.243c0,0.558-0.236,0.813-0.492,1.007c0.213,0.106,0.385,0.3,0.404,0.793l0.023,0.772
			c0.021,0.232,0.041,0.279,0.213,0.385V214.2L625.47,214.2z"/>
		<path fill="#0092D0" d="M623.417,207.254c-2.664,0-4.785,2.122-4.785,4.761c0,2.637,2.121,4.758,4.785,4.758
			c2.633,0,4.756-2.121,4.756-4.758C628.173,209.376,626.05,207.254,623.417,207.254z M623.417,216.065
			c-2.344,0-4.076-1.823-4.076-4.051c0-2.254,1.713-4.055,4.076-4.055c2.332,0,4.047,1.801,4.047,4.055
			C627.464,214.242,625.728,216.065,623.417,216.065z"/>
		<path fill="#0092D0" d="M625.257,213.558l-0.021-0.772c-0.021-0.493-0.191-0.687-0.404-0.793c0.256-0.192,0.492-0.449,0.492-1.007
			c0-1.012-0.795-1.243-1.502-1.243h-2.078v4.458h0.77v-1.846h1.309c0.6,0,0.645,0.343,0.645,0.666c0,0.15,0.021,0.816,0.127,1.18
			h0.879v-0.258C625.298,213.837,625.279,213.791,625.257,213.558z M623.755,211.67h-1.242v-1.242h1.354
			c0.275,0,0.662,0.04,0.662,0.599C624.527,211.562,624.164,211.67,623.755,211.67z"/>
	</g>
</g>
<g>
	<g>
		<path fill="none" d="M668.208,63.147c-0.469,0.004-4.16,0.428-6.027,0.663c-2.1,0.296-3.916,0.71-5.395,1.212
			c-1.486,0.588-2.686,1.379-3.492,2.36c-0.799,1.019-1.189,2.32-1.189,3.997c-0.018,1.453,0.539,2.467,1.6,3.05
			c1.055,0.616,2.621,0.903,4.654,0.903c1.324,0,2.758-0.32,4.27-0.93c1.123-0.467,2.197-1.015,3.213-1.655
			c0.363-0.232,1.154-1.099,1.299-1.697c0.486-1.988,1.557-6.362,1.648-6.91C668.998,62.882,668.683,63.144,668.208,63.147z"/>
		<path fill="#466295" d="M680.324,42.001c-3.107-1.735-7.971-2.611-14.623-2.611c-3.289,0-6.594,0.264-9.912,0.78
			c-2.438,0.373-2.688,0.434-4.197,0.763c-3.113,0.677-3.594,3.795-3.594,3.795l-1,4.11c-0.566,2.628,0.93,2.519,1.6,2.317
			c1.359-0.411,2.096-0.819,4.865-1.447c2.648-0.602,5.451-1.052,7.684-1.033c3.279,0,5.771,0.36,7.426,1.049
			c1.656,0.724,2.477,1.953,2.477,3.715c0.008,0.419,0.021,0.813-0.133,1.16c-0.135,0.321-0.398,0.632-1.178,0.737
			c-4.682,0.281-8.037,0.708-12.076,1.295c-3.988,0.562-7.48,1.525-10.396,2.857c-3.107,1.379-5.438,3.226-7.039,5.564
			c-1.561,2.35-2.348,5.195-2.35,8.547c0,3.166,1.137,5.75,3.342,7.755c2.227,1.979,5.125,2.959,8.633,2.959
			c2.193-0.014,3.908-0.173,5.137-0.48c1.219-0.307,2.545-0.743,3.945-1.349c1.049-0.439,2.18-1.073,3.371-1.867
			c1.191-0.796,2.021-1.363,3.082-2.058l0.039,0.066l-0.299,1.317c0,0.012-0.018,0.019-0.018,0.032l0.01,0.024
			c-0.344,1.587,0.609,2.908,2.184,3.063l0.02,0.027h0.141l0.004,0.007c1.045,0,4.627-0.001,6.301-0.007h1.166
			c0.082,0,0.088-0.023,0.115-0.041c1.607-0.197,3.146-1.505,3.508-3.074l5.975-25.803c0.143-0.607,0.25-1.31,0.316-2.115
			c0.074-0.814,0.162-1.484,0.135-1.97C684.994,46.437,683.427,43.739,680.324,42.001z M668.789,64.141
			c-0.094,0.547-1.162,4.921-1.648,6.91c-0.145,0.598-0.936,1.464-1.299,1.697c-1.016,0.64-2.09,1.188-3.213,1.655
			c-1.514,0.61-2.945,0.93-4.27,0.93c-2.033,0-3.602-0.287-4.654-0.903c-1.061-0.583-1.615-1.598-1.6-3.05
			c0-1.676,0.393-2.978,1.189-3.997c0.807-0.981,2.006-1.772,3.492-2.36c1.479-0.502,3.295-0.916,5.395-1.212
			c1.867-0.234,5.561-0.658,6.027-0.663C668.683,63.144,668.998,62.882,668.789,64.141z"/>
	</g>
	<g>
		<path fill="#2B365E" d="M577.478,39.962c-1.752,0-4.053,1.419-5.145,3.135c0,0-11.73,20.11-12.881,22.12
			c-0.627,1.081-1.262,0.395-1.367-0.007c-0.086-0.49-3.637-21.981-3.637-21.981c-0.396-1.729-2.205-3.215-4.467-3.208l-7.312,0.01
			c-1.766,0-2.863,1.414-2.469,3.12c0,0,5.59,31.693,6.68,39.146c0.545,4.124-0.057,4.855-0.057,4.855l-7.248,12.639
			c-1.064,1.714-0.48,3.117,1.273,3.117l8.479-0.007c1.754,0,4.078-1.396,5.121-3.113l32.613-55.157c0,0,3.119-4.71,0.24-4.67
			C585.343,39.99,577.478,39.962,577.478,39.962"/>
		<path fill="#2B365E" d="M492.21,34.806c-1.018-1.985-2.543-3.598-4.49-4.813c-2.02-1.246-4.369-2.106-7.105-2.622
			c-2.752-0.494-5.973-0.738-9.658-0.77l-17.09,0.013c-1.775,0.019-3.518,1.414-3.926,3.12l-11.521,50.092
			c-0.398,1.714,0.711,3.132,2.482,3.132h8.186c1.768,0,3.523-1.38,3.92-3.132l2.822-12.155c0.375-1.701,2.127-3.107,3.9-3.107
			h2.338c10.012-0.01,17.775-2.058,23.355-6.157c5.574-4.092,8.361-9.516,8.35-16.222C493.785,39.239,493.273,36.774,492.21,34.806
			 M474.533,51.173c-2.469,1.804-5.889,2.708-10.33,2.708h-2.008c-1.766,0-2.883-1.402-2.494-3.125l2.463-10.618
			c0.377-1.709,2.141-3.131,3.912-3.114l2.678-0.017c3.129,0,5.508,0.536,7.111,1.601c1.584,1.037,2.387,2.673,2.359,4.875
			C478.271,46.797,477.013,49.362,474.533,51.173"/>
	</g>
	<g>
		<path fill="#466295" d="M640.833,34.99c-1.018-1.985-2.561-3.584-4.508-4.829c-1.996-1.241-4.371-2.107-7.117-2.613
			c-2.717-0.474-5.947-0.747-9.629-0.757l-17.125,0.01c-1.766,0.03-3.494,1.414-3.9,3.121l-11.516,50.106
			c-0.42,1.704,0.725,3.124,2.457,3.113l8.217-0.016c1.744,0.016,3.52-1.394,3.932-3.098l2.775-12.16
			c0.389-1.703,2.16-3.131,3.934-3.105h2.34c10.02,0,17.791-2.06,23.357-6.16c5.553-4.119,8.344-9.525,8.344-16.246
			C642.378,39.424,641.876,36.951,640.833,34.99 M623.167,51.378c-2.455,1.784-5.898,2.678-10.33,2.678h-2.033
			c-1.764,0.021-2.9-1.403-2.48-3.113l2.455-10.635c0.363-1.681,2.154-3.113,3.893-3.098l2.689-0.015
			c3.145,0.015,5.488,0.54,7.113,1.584c1.596,1.057,2.367,2.697,2.383,4.88C626.861,46.991,625.63,49.553,623.167,51.378"/>
		<path fill="#2B365E" d="M517.185,72.71c-1.018,0.641-2.088,1.185-3.215,1.654c-1.51,0.604-2.949,0.929-4.271,0.929
			c-2.029,0-3.598-0.29-4.656-0.902c-1.055-0.584-1.613-1.6-1.596-3.055c0-1.671,0.393-2.976,1.189-3.993
			c0.811-0.984,2.004-1.777,3.49-2.363c1.482-0.504,3.307-0.912,5.398-1.208c1.865-0.235,5.561-0.659,6.031-0.667
			c0.469-0.001,0.785-0.264,0.57,0.995c-0.092,0.546-1.156,4.922-1.646,6.911C518.337,71.61,517.542,72.478,517.185,72.71
			 M531.667,41.962c-3.109-1.734-7.971-2.611-14.619-2.611c-3.293,0-6.598,0.263-9.916,0.779c-2.438,0.37-2.688,0.433-4.197,0.763
			c-3.115,0.679-3.598,3.794-3.598,3.794l-0.998,4.113c-0.562,2.627,0.936,2.518,1.604,2.314c1.354-0.41,2.094-0.815,4.865-1.446
			c2.646-0.598,5.451-1.048,7.68-1.032c3.281,0,5.77,0.357,7.428,1.049c1.656,0.722,2.473,1.957,2.473,3.715
			c0.012,0.419,0.021,0.815-0.129,1.158c-0.137,0.325-0.402,0.634-1.184,0.737c-4.674,0.285-8.027,0.709-12.074,1.297
			c-3.99,0.562-7.477,1.524-10.396,2.854c-3.107,1.381-5.434,3.229-7.031,5.568c-1.566,2.348-2.352,5.192-2.355,8.546
			c0,3.165,1.143,5.75,3.342,7.756c2.229,1.978,5.125,2.961,8.633,2.961c2.193-0.017,3.906-0.178,5.139-0.482
			c1.217-0.31,2.547-0.743,3.941-1.351c1.053-0.438,2.18-1.074,3.375-1.866c1.193-0.795,2.02-1.361,3.088-2.058l0.035,0.066
			l-0.303,1.315c-0.004,0.013-0.018,0.022-0.018,0.037l0.012,0.02c-0.342,1.591,0.609,2.911,2.184,3.063l0.02,0.03h0.139
			l0.004,0.009c1.049,0,4.631-0.005,6.299-0.009h1.172c0.078,0,0.088-0.026,0.113-0.042c1.607-0.203,3.145-1.508,3.508-3.071
			l5.979-25.807c0.133-0.604,0.244-1.305,0.303-2.109c0.082-0.82,0.17-1.488,0.146-1.97
			C536.337,46.397,534.767,43.699,531.667,41.962"/>
		<path fill="#466295" d="M708.55,27.204h-7.324c-0.004,0-0.01,0-0.012,0h-0.004c-1.68,0-3.379,1.284-3.854,2.918
			c-0.021,0.066-0.053,0.128-0.068,0.199c0,0-0.174,0.796-0.479,2.175L686.751,78.1c-0.234,1.03-0.391,1.703-0.439,1.878
			l0.021,0.024c-0.346,1.594,0.611,2.914,2.186,3.06l0.02,0.032h7.604c1.666,0,3.355-1.274,3.848-2.885
			c0.021-0.079,0.061-0.153,0.076-0.23l10.975-49.66l-0.012-0.006C711.396,28.613,710.304,27.204,708.55,27.204"/>
		<path fill="#466295" d="M722.417,37.313c-0.248,0.066-0.523,0.122-0.818,0.165c-0.299,0.041-0.562,0.064-0.797,0.064
			c-0.814,0-1.434-0.22-1.857-0.657c-0.422-0.437-0.631-1.141-0.631-2.103v-4.237h-0.904v-1.129h0.904v-2.289h1.34v2.289h2.766
			v1.129h-2.766v3.63c0,0.417,0.01,0.745,0.025,0.98c0.021,0.237,0.088,0.456,0.201,0.66c0.105,0.19,0.246,0.329,0.434,0.417
			c0.182,0.088,0.463,0.134,0.84,0.134c0.217,0,0.445-0.035,0.686-0.099c0.236-0.063,0.406-0.118,0.512-0.16h0.068v1.206"/>
		<path fill="#466295" d="M735.667,37.384h-1.34v-4.538c0-0.34-0.016-0.672-0.049-0.989c-0.031-0.319-0.098-0.573-0.195-0.765
			c-0.111-0.204-0.268-0.359-0.471-0.463c-0.207-0.104-0.5-0.157-0.885-0.157c-0.377,0-0.75,0.094-1.127,0.282
			s-0.75,0.424-1.127,0.716c0.014,0.111,0.025,0.238,0.035,0.383c0.012,0.144,0.016,0.287,0.016,0.43v5.1h-1.34v-4.538
			c0-0.351-0.018-0.684-0.047-1.001c-0.031-0.316-0.1-0.569-0.195-0.76c-0.113-0.205-0.268-0.357-0.473-0.46s-0.5-0.153-0.887-0.153
			c-0.365,0-0.73,0.091-1.104,0.271c-0.365,0.18-0.732,0.409-1.102,0.69v5.95h-1.344v-7.968h1.344v0.885
			c0.42-0.346,0.838-0.618,1.252-0.813c0.422-0.193,0.857-0.292,1.33-0.292c0.541,0,1.004,0.115,1.381,0.341
			c0.377,0.231,0.66,0.546,0.846,0.952c0.541-0.457,1.035-0.788,1.482-0.989c0.447-0.202,0.926-0.304,1.434-0.304
			c0.875,0,1.521,0.265,1.938,0.795c0.414,0.53,0.627,1.271,0.627,2.223V37.384"/>
	</g>
</g>
<g>
	<path fill="#B1B1B0" d="M31.718,42.465h17.743c3.507,0,6.34,0.994,8.497,2.982c2.157,1.989,3.235,4.782,3.235,8.381
		c0,3.096-0.963,5.79-2.887,8.084c-1.925,2.294-4.87,3.441-8.836,3.441H37.09v16.762h-5.372V42.465z M52.552,47.917
		c-1.18-0.558-2.796-0.837-4.85-0.837H37.09v13.74h10.612c2.393,0,4.336-0.514,5.828-1.539c1.491-1.025,2.237-2.834,2.237-5.425
		C55.768,50.94,54.695,48.961,52.552,47.917z"/>
	<path fill="#B1B1B0" d="M75.571,42.465h6.063l14.392,39.65h-5.885l-4.14-11.877H70.446l-4.299,11.877H60.64L75.571,42.465z
		 M84.478,65.867l-6.105-17.518L72.03,65.867H84.478z"/>
	<path fill="#B1B1B0" d="M93.736,42.465h6.263l11.398,19.056l11.398-19.056h6.318l-15.017,23.672v15.979h-5.372V66.137
		L93.736,42.465z"/>
	<path fill="#B1B1B0" d="M133.529,42.465h7.695l11.401,33.523l11.32-33.523h7.641v39.65h-5.128V58.714
		c0-0.81,0.018-2.15,0.055-4.021c0.035-1.872,0.053-3.877,0.053-6.019l-11.32,33.442h-5.322l-11.429-33.442v1.214
		c0,0.972,0.027,2.452,0.081,4.441c0.054,1.988,0.081,3.45,0.081,4.385v23.402h-5.129L133.529,42.465L133.529,42.465z"/>
	<path fill="#B1B1B0" d="M180.224,42.465h28.774v4.859h-23.537v12.037h21.755v4.589h-21.755v13.442h23.941v4.723h-29.178V42.465z"/>
	<path fill="#B1B1B0" d="M216.582,42.465h6.327l19.774,32.036V42.465h5.127v39.65h-6.034L221.71,50.118v31.998h-5.128V42.465z"/>
	<path fill="#B1B1B0" d="M285.329,42.465v4.723h-13.361v34.927h-5.425V47.188h-13.361v-4.723H285.329z"/>
	<path fill="#B1B1B0" d="M293.777,69.322c0.121,2.25,0.632,4.076,1.534,5.479c1.716,2.627,4.742,3.941,9.074,3.941
		c1.942,0,3.709-0.288,5.304-0.864c3.086-1.116,4.628-3.113,4.628-5.992c0-2.159-0.653-3.697-1.961-4.616
		c-1.325-0.898-3.399-1.682-6.223-2.348l-5.204-1.215c-3.399-0.792-5.805-1.664-7.216-2.618c-2.44-1.656-3.661-4.13-3.661-7.423
		c0-3.562,1.2-6.487,3.599-8.772c2.399-2.286,5.796-3.428,10.191-3.428c4.045,0,7.481,1.004,10.31,3.01
		c2.828,2.007,4.241,5.214,4.241,9.622h-5.047c-0.259-2.123-0.811-3.751-1.657-4.885c-1.57-2.069-4.235-3.104-7.996-3.104
		c-3.036,0-5.219,0.666-6.547,1.997c-1.329,1.332-1.993,2.879-1.993,4.642c0,1.944,0.785,3.365,2.354,4.265
		c1.029,0.576,3.356,1.295,6.983,2.159l5.387,1.269c2.598,0.613,4.603,1.449,6.015,2.51c2.441,1.854,3.662,4.544,3.662,8.07
		c0,4.391-1.558,7.53-4.672,9.42c-3.115,1.89-6.734,2.834-10.858,2.834c-4.81,0-8.573-1.26-11.293-3.779
		c-2.721-2.5-4.055-5.892-4-10.175h5.046V69.322z"/>
	<path fill="#B1B1B0" d="M342.361,42.465h17.143c4.674,0,7.998,1.386,9.972,4.157c1.159,1.638,1.738,3.526,1.738,5.668
		c0,2.501-0.711,4.553-2.133,6.154c-0.737,0.846-1.798,1.619-3.185,2.321c2.034,0.774,3.553,1.647,4.562,2.618
		c1.781,1.728,2.672,4.112,2.672,7.153c0,2.555-0.807,4.867-2.417,6.937c-2.409,3.094-6.237,4.642-11.487,4.642H342.36
		L342.361,42.465L342.361,42.465z M357.498,59.227c2.292,0,4.073-0.314,5.347-0.944c1.999-0.99,3-2.771,3-5.344
		c0-2.591-1.064-4.337-3.191-5.237c-1.2-0.503-2.982-0.756-5.346-0.756h-9.682v12.281H357.498z M359.313,77.527
		c3.324,0,5.695-0.953,7.111-2.861c0.891-1.206,1.336-2.663,1.336-4.373c0-2.878-1.3-4.84-3.898-5.884
		c-1.38-0.558-3.205-0.836-5.476-0.836h-10.762v13.954H359.313z"/>
	<path fill="#B1B1B0" d="M376.307,42.465h6.264l11.398,19.056l11.397-19.056h6.318l-15.018,23.672v15.979h-5.371V66.137
		L376.307,42.465z"/>
</g>
</svg>
