<?xml version="1.0" standalone="no"?>
<!DOCTYPE svg PUBLIC "-//W3C//DTD SVG 20010904//EN"
 "http://www.w3.org/TR/2001/REC-SVG-20010904/DTD/svg10.dtd">
<svg version="1.0" xmlns="http://www.w3.org/2000/svg"
 width="641.000000pt" height="127.000000pt" viewBox="0 0 641.000000 127.000000"
 preserveAspectRatio="xMidYMid meet">
<metadata>
Created by potrace 1.12, written by Peter Selinger 2001-2015
</metadata>
<g transform="translate(0.000000,127.000000) scale(0.100000,-0.100000)"
fill="#004048" stroke="none">
<path d="M608 1201 l-28 -28 44 -31 c24 -18 49 -32 55 -32 6 0 11 -4 11 -9 0
-18 33 -21 52 -4 18 16 17 19 -39 75 -31 32 -60 58 -63 57 -3 0 -17 -13 -32
-28z"/>
<path d="M4622 1190 c-35 -33 -28 -76 15 -99 30 -15 40 -14 63 9 27 27 26 75
-2 94 -30 21 -50 20 -76 -4z"/>
<path d="M4802 1190 c-12 -12 -22 -32 -22 -45 0 -27 35 -65 60 -65 32 0 60 30
60 65 0 58 -57 83 -98 45z"/>
<path d="M289 1024 c-15 -3 -51 -19 -80 -37 -233 -140 -176 -484 90 -538 65
-14 157 -3 187 22 13 10 21 119 9 119 -2 0 -21 -12 -42 -26 -33 -22 -46 -25
-99 -22 -73 5 -122 33 -154 91 -29 50 -31 146 -5 201 43 89 178 126 259 71 20
-14 39 -25 41 -25 3 0 5 26 5 58 0 54 -2 60 -27 72 -29 13 -139 21 -184 14z"/>
<path d="M2315 1006 c-99 -46 -153 -114 -175 -219 -20 -96 16 -205 88 -268 78
-69 187 -94 285 -65 l57 17 0 60 0 60 -43 -26 c-72 -42 -162 -32 -220 23 -45
42 -60 81 -60 147 0 83 38 147 110 184 40 20 122 13 170 -14 l43 -26 0 59 0
60 -40 16 c-60 24 -155 21 -215 -8z"/>
<path d="M2851 1011 c-19 -35 -231 -541 -231 -551 0 -15 96 -12 107 3 6 6 18
33 29 59 l19 48 121 0 122 0 22 -60 22 -60 54 0 c30 0 54 4 54 9 0 4 -49 127
-108 272 -60 145 -111 272 -115 282 -9 25 -83 24 -96 -2z m92 -256 l34 -90
-75 -3 c-41 -2 -77 0 -80 3 -3 3 12 48 33 101 20 52 41 92 45 87 5 -4 24 -48
43 -98z"/>
<path d="M3250 739 l0 -290 53 3 52 3 0 188 c0 103 3 187 6 187 4 0 41 -39 82
-87 42 -49 90 -104 108 -123 17 -19 59 -68 92 -107 56 -67 65 -73 99 -73 l38
0 0 290 0 290 -55 0 -55 0 -2 -191 -3 -190 -102 118 c-56 65 -117 134 -134
153 -17 19 -47 54 -66 78 -31 36 -41 42 -74 42 l-39 0 0 -291z"/>
<path d="M4089 1016 c-88 -31 -161 -105 -189 -189 -17 -53 -9 -172 15 -222 26
-54 87 -113 144 -138 66 -30 187 -30 256 1 110 50 169 145 170 272 0 61 -5 84
-25 124 -32 62 -103 126 -166 149 -57 20 -153 22 -205 3z m189 -106 c90 -55
125 -155 86 -248 -46 -112 -178 -158 -272 -94 -74 49 -87 75 -87 168 0 76 2
85 30 120 17 20 46 45 65 55 48 26 135 25 178 -1z"/>
<path d="M5123 1019 c-53 -16 -101 -71 -109 -124 -13 -91 27 -142 147 -186 72
-26 99 -51 99 -90 0 -47 -39 -79 -96 -79 -39 0 -51 5 -82 36 l-35 35 -34 -33
-33 -33 36 -38 c20 -20 40 -37 45 -37 5 0 9 -4 9 -9 0 -4 -39 -11 -87 -14
-111 -8 -181 -15 -264 -27 -37 -5 -95 -13 -130 -16 -35 -3 -67 -8 -71 -10 -4
-3 -42 -9 -85 -14 -43 -5 -89 -12 -103 -14 -14 -2 -74 -12 -135 -21 -96 -14
-384 -60 -440 -71 -10 -2 -37 -6 -60 -9 -57 -8 -146 -23 -175 -30 -14 -2 -47
-7 -75 -11 -27 -3 -52 -7 -55 -9 -4 -2 -29 -7 -56 -10 -45 -5 -86 -11 -139
-21 -11 -2 -56 -8 -100 -13 -44 -6 -145 -19 -225 -30 -80 -10 -172 -22 -205
-25 -33 -4 -94 -11 -135 -16 -320 -38 -925 -49 -1180 -20 -47 5 -107 12 -135
14 -120 12 -515 79 -534 91 -4 2 -21 6 -37 9 -16 3 -83 22 -149 41 -66 20
-128 37 -138 40 -9 2 -22 7 -28 11 -6 4 -25 10 -43 15 -17 4 -85 28 -151 53
-66 25 -123 46 -127 46 -5 0 -8 -8 -8 -18 0 -17 18 -26 95 -48 6 -2 47 -17 93
-33 45 -17 82 -28 82 -25 0 4 6 2 13 -4 7 -6 33 -16 57 -22 25 -6 50 -12 55
-14 47 -14 103 -29 115 -31 8 -2 40 -10 70 -18 30 -9 73 -19 94 -22 22 -3 71
-12 110 -21 39 -8 89 -17 111 -20 22 -3 46 -7 54 -10 8 -2 40 -7 70 -10 31 -3
79 -9 106 -15 85 -15 489 -39 676 -39 157 0 620 23 711 35 18 2 67 7 108 10
178 15 563 65 570 74 3 3 28 7 55 7 46 1 208 24 625 89 91 14 181 28 200 31
36 4 87 12 130 19 14 2 61 9 105 15 361 48 445 59 520 66 28 2 91 9 140 14
242 26 355 32 660 36 182 2 366 -1 410 -6 44 -5 130 -14 190 -20 61 -6 122
-13 138 -15 21 -4 27 -1 27 14 0 25 -14 28 -243 46 -116 9 -315 15 -514 15
-312 0 -325 1 -310 18 25 27 47 87 47 127 0 82 -39 126 -153 172 -34 14 -70
32 -79 40 -46 41 6 109 75 100 21 -3 48 -14 59 -24 20 -18 21 -17 49 16 15 19
26 38 23 43 -3 4 -24 18 -46 29 -47 24 -129 33 -175 18z"/>
<path d="M540 735 l0 -285 155 0 155 0 0 44 0 44 -46 7 c-25 3 -70 5 -100 4
l-55 -3 -2 77 -2 77 98 0 98 0 -3 48 -3 47 -93 0 -92 0 0 68 0 67 100 0 100 0
0 45 0 45 -155 0 -155 0 0 -285z"/>
<path d="M1020 975 l0 -45 115 0 c64 0 115 -4 115 -9 0 -5 -22 -47 -49 -93
-172 -291 -211 -360 -211 -369 0 -5 89 -9 215 -9 l215 0 0 48 0 47 -126 0
c-69 0 -127 3 -129 6 -2 3 6 21 19 40 13 19 35 57 51 84 15 28 65 114 111 192
46 78 84 144 84 147 0 4 -92 6 -205 6 l-205 0 0 -45z"/>
<path d="M1530 736 l0 -285 153 2 152 2 0 45 0 45 -100 1 -100 1 0 78 0 78 98
-2 97 -2 0 48 0 49 -97 -1 -98 0 -3 68 -3 67 106 0 105 0 0 45 0 45 -155 0
-155 0 0 -284z"/>
<path d="M4600 738 l0 -283 133 2 c72 1 142 2 155 2 19 1 22 6 22 41 l0 39
-102 3 -103 3 -3 83 -3 82 101 0 100 0 0 40 0 39 -97 3 -98 3 0 65 0 65 103 3
102 3 0 44 0 45 -155 0 -155 0 0 -282z"/>
</g>
</svg>
